<svg height="224pt" preserveAspectRatio="xMidYMid meet" viewBox="0 0 224 224" width="224pt" xmlns="http://www.w3.org/2000/svg"><g transform="matrix(.1 0 0 -.1 0 224)"><path d="m1560 2134c0-13-45-356-75-579-28-199-89-423-114-417-9 2-9-3-1-19 7-11 9-27 6-35-4-10 11-5 42 12 80 47 102 65 102 85 0 11 11 76 25 144 26 128 25 146-9 175-21 17-20 47 9 364 14 148 23 271 20 274s-5 1-5-4z"/><path d="m946 1739c-19-22-26-41-25-67l2-37 6 42c4 24 18 54 31 68s21 25 18 25c-4 0-18-14-32-31z"/><path d="m1111 1583-1-123-37-42c-21-24-40-45-43-48s-32-35-64-72c-32-38-62-68-67-68-4 0-36 32-70 72-44 52-61 65-56 48 3-14 11-73 18-132l12-108 43-25c23-14 45-25 48-25s6 32 6 70v70h41c23 0 47 7 55 15 21 20 220 22 243 1 18-15 81-30 81-19 0 4-19 27-42 50l-42 43h-93-93v28c0 16 13 43 32 66 32 39 32 41 36 161 2 66 2 130-1 140-2 11-5-35-6-102z"/><path d="m732 1655c0-16 2-22 5-12 2 9 2 23 0 30-3 6-5-1-5-18z"/><path d="m1337 1623c-16-16-19-16-27-3-7 10-10-3-10-45 0-48 5-68 25-98 28-41 35-46 29-19-3 9-1 54 4 100 4 45 5 82 2 82s-14-8-23-17z"/><path d="m870 1548c0-46 3-88 7-91 13-14 43 48 43 89 0 30-6 46-25 64l-25 23z"/><path d="m742 1580c0-19 2-27 5-17 2 9 2 25 0 35-3 9-5 1-5-18z"/><path d="m752 1510c0-19 2-27 5-17 2 9 2 25 0 35-3 9-5 1-5-18z"/><path d="m324 1504c3-9 6-18 6-20 0-3 4-3 10 1 11 7 2 35-12 35-6 0-7-7-4-16z"/><path d="m1850 1424c-91-134-90-131-24-94 89 50 91 52 93 125 1 36 1 65-1 65s-32-44-68-96z"/><path d="m2025 1431c-77-49-270-168-430-266-159-98-298-185-308-193-10-9-38-50-64-91-25-42-58-91-74-109-22-24-29-43-29-73v-40l-49 38c-27 21-194 155-372 297s-333 266-344 275c-19 16-19 15-3-4 9-11 47-42 83-70 46-35 67-59 72-80s8-25 12-13c5 14 16 9 66-30 130-102 395-325 395-333 0-5-17-9-37-9-37 0-135 50-132 68 12 75-90 75-137 0-26-41-33-45-53-25-10 10-11 9-6-5 5-13 18-18 46-18 26 0 41-6 48-17 6-10 11-12 11-5 0 19 67 15 79-5 6-10 11-13 11-7 0 5-5 15-12 22-9 9-8 12 5 12 10 0 22-12 28-27 6-16 20-46 31-68 19-36 20-39 3-25-14 11-13 7 4-16 13-18 25-46 26-64 3-30 18-49 39-50 5 0 3 7-4 15-11 13-39 120-40 153 0 8 18 12 60 12 35 0 60-4 60-10s6-26 14-45c14-34 15-34 43-20 15 8 47 15 69 15 32 0 45 5 57 23 8 12 18 19 21 16 8-7-14-59-24-59-4 0-13-37-20-81-10-65-17-83-31-86-16-5-19-16-20-87-1-44-1-102 1-127 2-45-20-86-40-74-13 8-22-13-15-35 5-16 15-20 50-20 38 0 46 4 59 28 7 15 17 70 21 122 8 107 39 197 82 242 24 25 53 37 53 22 0-3-13-22-28-42-40-52-72-144-72-208 0-30 4-54 9-54 4 0 28 25 52 55s47 55 51 55c5 0 8-30 8-66s4-63 8-60c5 3 49 71 98 151 49 79 92 145 97 145 4 0 7-7 7-15 0-20 13-19 33 3 12 13 17 37 17 80 0 33 5 64 10 67 6 4 10-23 11-72v-78l53 112c52 108 96 257 96 326 0 18 10 57 23 88 12 31 38 110 57 175l34 120 134 109c118 98 151 126 140 125-2-1-66-41-143-89zm-602-616c-7-36-79-75-138-75-60 0-52 11 43 60 92 46 101 48 95 15zm223-63c-42-82-215-286-231-271-3 3 25 65 62 137 66 128 69 132 100 132 27 0 37 7 60 42 37 55 43 27 9-40zm-217-92c-40-44-74-80-76-80-11 0 3 25 47 88 40 57 56 72 76 72 23 0 19-7-47-80z"/><path d="m762 1435c0-16 2-22 5-12 2 9 2 23 0 30-3 6-5-1-5-18z"/><path d="m195 1442c6-5 42-27 80-48 39-20 66-33 60-27-14 14-153 88-140 75z"/><path d="m180 1407c0-3 24-25 53-48 28-24 46-36 38-26-16 20-91 81-91 74z"/><path d="m1687 1381c3-11-3-45-12-76-9-32-14-59-11-62 6-6 86 40 86 50 0 11-50 96-60 102-4 3-6-4-3-14z"/><path d="m545 1379c-4-6-5-12-2-15 2-3 7 2 10 11 7 17 1 20-8 4z"/><path d="m691 1324c0-11 3-14 6-6 3 7 2 16-1 19-3 4-6-2-5-13z"/><path d="m305 1300c10-11 20-20 23-20s-3 9-13 20-20 20-23 20 3-9 13-20z"/><path d="m732 1295c0-16 2-22 5-12 2 9 2 23 0 30-3 6-5-1-5-18z"/><path d="m1290 1266c0-2 8-10 18-17 15-13 16-12 3 4s-21 21-21 13z"/><path d="m742 1215c0-16 2-22 5-12 2 9 2 23 0 30-3 6-5-1-5-18z"/><path d="m800 1066c0-3 9-10 20-16s20-8 20-6c0 3-9 10-20 16s-20 8-20 6z"/><path d="m900 1006c0-3 9-10 20-16s20-8 20-6c0 3-9 10-20 16s-20 8-20 6z"/><path d="m986 912c10-19 32-48 47-65 20-23 18-17-9 23-46 67-64 87-38 42z"/><path d="m499 876c4-6 11-18 14-26 3-9 6-5 6 11 1 16-4 26-14 26-9 0-11-4-6-11z"/><path d="m680 862c0-10-6-24-12-32-7-8-3-6 9 4s19 24 16 32c-7 19-13 18-13-4z"/><path d="m1060 806c0-2 8-10 18-17 15-13 16-12 3 4s-21 21-21 13z"/><path d="m491 784c0-11 3-14 6-6 3 7 2 16-1 19-3 4-6-2-5-13z"/><path d="m680 623c13-18 25-33 27-33 8 0-17 38-33 51-11 9-9 2 6-18z"/><path d="m630 538c0-46 4-61 22-78 32-30 41-25 33 17l-7 38 23-20 23-20-22 30c-12 17-33 44-47 60l-25 30z"/><path d="m975 381c18-44 25-79 25-131 0-54 3-70 14-70s15 18 18 75c2 41 1 76-2 78-3 1-15 25-26 52-11 28-28 51-37 53-14 3-13-6 8-57z"/><path d="m893 352c2-34 7-66 13-72s7 13 4 55c-3 35-9 67-13 71-4 5-6-20-4-54z"/><path d="m850 211c0-6 4-13 10-16s7 1 4 9c-7 18-14 21-14 7z"/><path d="m870 176c0-2 7-9 15-16 9-7 15-8 15-2 0 5-7 12-15 16-8 3-15 4-15 2z"/></g></svg>