<svg height="218pt" preserveAspectRatio="xMidYMid meet" viewBox="0 0 231 218" width="231pt" xmlns="http://www.w3.org/2000/svg"><g transform="matrix(.1 0 0 -.1 0 218)"><path d="m1465 1895c-128-239-151-288-155-335l-5-55h-150-150l-5 55c-5 47-26 93-155 329-83 151-151 268-153 258-2-9 58-151 133-316 134-296 136-300 133-364l-3-64-85 26-84 26-12 58c-6 32-13 59-15 61-9 8-712 408-727 414-14 5-14 3-1-15 22-30 476-432 731-646 184-155 228-196 233-221 13-64 15-66 51-66 34 0 41-6 91-69l19-23 38 47c35 42 43 46 73 43 32-4 34-2 43 36 6 23 14 48 19 56 4 8 109 101 233 205 281 237 715 622 722 642 3 8 2 13-3 11-5-1-172-95-370-208l-360-205-13-60-13-59-85-27-85-26-3 65c-3 65-2 67 133 364 75 166 135 309 133 321-2 15-53-71-153-258zm-229-512c14-14 16-29 10-92-3-40-6-91-6-113v-38h-74-73l-6 113c-6 137-1 147 79 147 36 0 58-5 70-17z"/><path d="m906 2091c-28-29-28-31-24-133l4-103 54-100 55-100 3 88 3 87h154 155v-92-93l60 105 59 105 1 108c0 104-1 109-26 132-27 25-27 25-249 25h-221z"/><path d="m1020 1670v-150h140 140v150 150h-140-140z"/><path d="m775 1778c-43-31-84-69-105-99l-19-25 64-37c60-35 64-39 70-81 10-62 20-71 98-94l67-20v50c0 40-13 79-62 189-34 77-67 139-72 139-6 0-24-10-41-22z"/><path d="m1461 1738c-16-35-43-94-60-131-17-38-34-93-37-123-8-64-5-65 91-35 59 18 59 19 70 68 15 65 18 69 81 104 30 17 54 34 54 38 0 18-142 141-163 141-4 0-21-28-36-62z"/><path d="m15 1603c52-174 90-245 243-464l152-217 117-84c65-46 124-88 132-93 12-7 13 16 8 159-7 166-7 168-47 264l-40 97-197 135c-341 233-366 250-374 250-4 0-2-21 6-47zm606-644c4-74 5-136 3-138-1-2-21 10-43 25-44 32-45 34-57 197l-6 87 49-19 48-19z"/><path d="m2029 1469c-145-99-274-191-285-202-12-12-37-61-57-109-34-83-36-93-43-253-8-196-26-188 146-63l114 83 156 223c145 208 158 231 196 340 54 151 57 162 46 162-5 0-128-81-273-181zm-243-441c-10-146-12-153-56-182-22-14-41-26-42-26-2 0-1 61 2 136l5 136 45 19c25 10 47 18 49 18 2 1 0-45-3-101z"/><path d="m491 1440c-17-28-31-55-31-60s27-28 60-50c70-48 77-57 126-175 33-81 37-102 42-203l5-113 26 25c15 15 30 26 33 26s25-26 48-57c49-66 88-102 111-103 8 0 55 13 104 30 53 18 109 30 140 30s87-12 140-30c49-17 95-30 102-30 24 0 70 41 114 101 23 33 45 59 48 59s17-11 31-25l27-26 7 116c5 104 10 125 46 212 48 114 48 114 122 164 32 22 58 45 58 51 0 16-60 108-71 108-5 0-105-79-222-176l-212-176-18-59c-18-59-18-59-56-59-34 0-43-6-77-46l-38-47-39 47c-34 40-44 46-78 46-37 0-39 2-49 43-6 23-14 50-18 59-8 19-426 368-441 368-5 0-23-23-40-50zm399-429c96-32 134-50 163-77l39-36-23-24c-20-21-31-24-93-24l-71 1-80 62c-76 60-80 65-83 106-2 33 0 42 10 39 7-3 69-24 138-47zm680 7c-1-42-3-44-85-105-84-63-85-63-153-63-59 0-72 3-91 24l-23 24 39 36c29 27 68 46 168 80 72 24 133 45 138 45 4 1 7-18 7-41z"/><path d="m400 870c0-19 47-124 124-279l125-249 83-34 83-35 3 89 3 89-71 100c-45 64-70 109-70 127 0 22-12 35-68 74-37 25-100 69-139 97l-73 52zm246-200c3-14 12-43 20-64 7-22 13-41 11-42-1-2-26 18-54 44-43 39-52 54-56 90l-5 42 39-22c25-14 42-31 45-48zm123-260c0-34-2-40-9-25-13 29-13 104 0 85 5-8 9-35 9-60z"/><path d="m1780 808c-131-92-150-110-150-140 0-10-32-65-70-121l-71-102 3-86 3-86 83 35 83 34 125 250c86 173 124 258 122 277-3 27-5 26-128-61zm-36-117c-5-34-16-50-57-86-28-24-53-43-55-41s3 17 11 33c8 15 17 44 21 64 5 27 15 40 43 56 21 12 39 20 41 19 1-2 0-22-4-45zm-204-301c-6-11-15-20-20-20-17 0-11 64 8 90l17 25 3-37c2-20-2-46-8-58z"/><path d="m717 842c-26-27-26-31-20-110 6-80 7-84 65-167 54-77 61-84 80-74 20 11 20 18 16 129l-5 118-48 66c-27 36-52 66-55 66s-18-13-33-28z"/><path d="m1508 808-45-63-5-123c-5-111-3-124 13-132 15-9 25 0 65 56 72 101 84 130 84 204 0 60-3 69-28 93-15 15-30 27-33 27s-26-28-51-62z"/><path d="m1013 749-93-30v-133-133l59-47c33-25 62-46 64-46 3 0 18 32 33 70l27 70h53 52l28-70c15-38 31-70 35-70s35 23 68 51l61 51v127 128l-102 32c-126 39-167 39-285 0z"/><path d="m880 610c0-98-2-112-20-127-15-13-20-30-20-69v-52l111-104c61-57 115-104 120-106s9 29 9 70c0 63 4 80 30 126 40 69 61 69 97 0 18-37 28-75 32-125l6-72 118 107 117 107v47c0 36-5 53-24 71-23 23-24 28-19 131 4 70 2 106-4 106-19 0-23-29-23-149v-117l-75-63c-42-35-77-62-79-60s-17 38-34 79c-30 74-31 75-68 75-36 0-37-1-65-70-16-38-30-74-32-80-2-5-38 20-80 55l-76 65-1 127c0 73-4 129-10 133s-10-33-10-105z"/><path d="m1122 335c-18-38-22-62-21-148 1-129 14-171 56-175 28-3 31 0 44 45 8 26 14 91 14 143-1 79-4 102-23 138-12 23-28 42-35 42s-23-20-35-45z"/></g></svg>